<?xml version="1.0" standalone="no"?>
<!DOCTYPE svg PUBLIC "-//W3C//DTD SVG 20010904//EN"
 "http://www.w3.org/TR/2001/REC-SVG-20010904/DTD/svg10.dtd">
<svg version="1.0" xmlns="http://www.w3.org/2000/svg"
 width="512.000000pt" height="512.000000pt" viewBox="0 0 512.000000 512.000000"
 preserveAspectRatio="xMidYMid meet">
<metadata>
Created by potrace 1.14, written by Peter Selinger 2001-2017
</metadata>
<g transform="translate(0.000000,512.000000) scale(0.100000,-0.100000)"
fill="#000000" stroke="none">
<path d="M1089 5084 c-22 -23 -27 -34 -18 -39 8 -6 10 -4 4 5 -5 9 -4 11 4 6
9 -6 9 -11 0 -22 -14 -17 -23 -18 -13 -1 5 8 2 7 -9 -2 -10 -8 -15 -16 -13
-19 3 -2 1 -14 -5 -26 -10 -20 -9 -20 5 -2 9 10 13 23 9 29 -3 6 -1 7 5 4 16
-11 2 -47 -22 -52 -11 -3 -106 -6 -211 -8 -161 -4 -200 -7 -254 -26 -162 -54
-298 -177 -361 -326 -51 -120 -49 -34 -49 -2045 0 -1635 2 -1884 15 -1940 43
-184 174 -340 349 -413 69 -28 101 -36 176 -42 55 -5 436 -8 454 -5 6 1 15 1
20 0 6 -1 27 -1 48 0 21 1 45 -4 54 -12 9 -7 14 -8 10 -2 -4 8 42 11 162 11
150 0 169 -2 164 -16 -3 -12 0 -11 11 3 9 11 19 17 23 13 3 -4 -2 -17 -13 -29
-19 -23 -19 -23 2 -6 25 22 41 24 24 3 -7 -8 -8 -15 -4 -15 5 0 15 9 22 21 8
12 9 18 3 15 -5 -4 -12 -2 -15 3 -4 5 2 8 11 7 25 -4 23 -38 -2 -53 -11 -7
-15 -12 -9 -13 6 0 23 9 38 21 26 20 37 14 14 -9 -9 -9 -9 -15 1 -24 10 -11
15 -9 26 6 14 18 15 18 34 -5 11 -13 15 -25 10 -27 -5 -2 -9 -9 -9 -15 0 -8 4
-7 12 1 14 14 32 16 24 3 -4 -5 2 -8 11 -7 10 2 18 9 18 17 0 8 4 19 8 26 9
14 -26 36 -38 25 -5 -4 -5 -1 0 6 6 11 3 12 -13 3 -28 -15 -31 -14 -27 8 2 14
-2 17 -21 15 -16 -1 -22 2 -17 9 4 7 -1 6 -10 -2 -14 -11 -17 -11 -17 0 0 10
14 15 46 15 25 1 42 -1 37 -5 -15 -11 -13 -31 3 -31 9 0 12 5 8 12 -5 7 -3 8
6 3 9 -6 12 -4 8 7 -4 8 -1 15 7 15 8 0 11 -7 7 -16 -5 -14 -4 -14 14 -1 10 8
16 10 12 6 -4 -5 -3 -15 3 -23 9 -10 8 -13 0 -13 -7 0 -9 -5 -6 -10 5 -8 12
-7 23 2 14 12 14 11 0 -12 -17 -29 -17 -37 -1 -65 l12 -20 0 20 c1 44 7 70 18
68 6 -1 23 9 37 22 18 17 26 20 26 10 0 -8 -5 -15 -12 -15 -18 0 0 -13 22 -17
11 -2 20 2 20 7 0 6 -4 10 -10 10 -5 0 -10 6 -10 13 1 6 9 1 20 -12 11 -12 17
-27 14 -32 -8 -14 32 -5 50 11 14 11 14 15 4 23 -9 6 -8 7 4 3 10 -3 22 2 28
12 8 13 10 14 9 2 -3 -28 1 -40 12 -40 6 0 8 9 4 23 -5 16 -4 18 4 8 5 -8 8
-27 6 -42 -2 -17 2 -30 11 -33 8 -3 13 -2 10 3 -3 5 1 12 10 15 25 9 26 8 8
-19 -12 -18 -20 -22 -29 -15 -8 6 -15 6 -23 -2 -8 -8 -11 -5 -9 11 1 11 5 21
10 21 4 0 5 5 2 10 -5 8 -11 8 -19 1 -7 -6 -17 -7 -21 -3 -5 4 -5 1 0 -7 6
-10 4 -12 -5 -6 -8 5 -11 4 -6 -3 4 -6 14 -8 24 -5 14 6 15 4 5 -9 -11 -12 -9
-17 12 -26 21 -10 23 -9 18 6 -6 14 -4 15 8 5 12 -10 18 -10 29 0 10 10 12 8
6 -7 -6 -18 -5 -19 11 -4 10 8 24 13 31 11 6 -3 12 2 12 11 0 9 4 16 9 16 11
0 9 -19 -3 -39 -5 -8 2 -7 19 5 23 15 28 15 37 3 8 -11 9 -11 4 3 -8 25 8 30
24 8 10 -14 17 -16 27 -8 9 7 17 7 27 -1 11 -9 15 -8 20 4 5 14 9 14 35 0 33
-17 51 -4 31 20 -8 10 -9 15 -2 15 6 0 14 -5 17 -10 7 -12 44 5 61 28 9 13 13
12 25 -4 8 -10 21 -25 30 -31 13 -10 16 -10 16 2 0 8 -3 13 -5 10 -7 -7 -32
15 -32 27 0 6 8 4 18 -3 15 -13 16 -12 3 4 -18 22 -57 45 -46 26 5 -8 4 -10
-3 -5 -21 13 -13 28 10 20 20 -6 21 -5 10 9 -7 9 -22 15 -33 14 -22 -1 -22 -2
-9 -27 8 -15 6 -18 -8 -15 -9 1 -23 -2 -29 -8 -12 -9 -18 2 -14 27 1 5 -5 6
-14 2 -9 -3 -13 -2 -10 4 3 6 -1 10 -9 10 -22 0 -20 -5 12 -36 15 -15 21 -23
13 -19 -10 6 -12 4 -7 -6 4 -8 -3 -3 -15 11 -16 17 -20 20 -16 7 5 -12 3 -16
-5 -11 -7 4 -8 3 -4 -4 4 -7 -1 -10 -14 -7 -14 3 -18 0 -14 -8 4 -7 4 -9 -1
-5 -4 4 -17 3 -28 -3 -15 -9 -18 -8 -12 2 5 8 4 10 -3 5 -8 -5 -10 -1 -6 11 5
14 4 15 -4 4 -9 -12 -13 -12 -26 -2 -11 9 -16 10 -16 2 0 -6 6 -11 13 -11 13
-1 -30 -40 -44 -40 -4 0 -6 8 -4 18 2 14 -2 18 -18 17 -16 -1 -21 -8 -19 -20
3 -16 2 -17 -13 -5 -9 7 -12 16 -8 19 14 10 14 32 1 30 -17 -3 -48 11 -48 22
0 4 7 5 17 2 11 -4 14 -3 9 5 -4 7 -2 12 4 12 7 0 9 -8 5 -20 -5 -15 -3 -18 9
-14 9 3 14 10 11 14 -3 5 0 12 6 16 7 4 9 3 6 -3 -4 -6 0 -13 8 -16 10 -4 12
-1 8 10 -4 11 -2 14 8 11 8 -3 24 -1 37 3 17 7 24 5 28 -6 4 -8 9 -13 14 -10
4 2 13 -7 20 -20 7 -14 17 -25 22 -25 11 0 6 23 -7 32 -5 4 -11 16 -11 28 -1
14 2 17 11 10 8 -6 16 -5 25 3 10 9 11 9 6 0 -5 -8 -1 -13 9 -13 9 0 14 4 11
9 -3 4 7 7 22 7 15 -1 33 3 40 8 9 6 11 5 7 -6 -4 -9 0 -15 10 -15 9 0 14 5
12 11 -3 7 12 12 40 12 25 1 40 -2 33 -6 -7 -4 -8 -9 -4 -12 8 -4 17 -4 42 1
4 1 1 5 -7 10 -10 7 -7 9 12 8 14 -1 23 -6 19 -11 -3 -5 2 -6 12 -3 23 9 37 0
30 -18 -4 -8 -10 -12 -15 -9 -5 3 -6 10 -3 16 4 6 -2 6 -15 -1 -11 -7 -21 -14
-21 -17 0 -3 5 -2 10 1 12 8 40 -12 40 -27 0 -6 -6 -5 -15 2 -8 6 -18 9 -24 6
-14 -9 -21 20 -8 34 9 10 9 11 -3 8 -8 -3 -14 -12 -14 -21 1 -10 -3 -14 -10
-11 -6 3 -3 -1 6 -9 10 -8 15 -17 12 -20 -3 -3 5 -10 18 -17 21 -10 21 -10 5
3 -13 11 -15 17 -6 22 6 4 15 2 19 -5 10 -16 33 -2 26 16 -3 8 -1 14 4 14 6 0
10 -5 10 -11 0 -6 9 -4 21 4 11 8 29 12 40 10 14 -4 20 -1 19 8 -4 29 1 37 24
37 17 0 23 -5 19 -15 -4 -10 -9 -11 -19 -2 -9 7 -14 8 -14 1 0 -19 29 -21 42
-4 12 17 40 18 350 18 186 -1 338 1 338 4 0 3 26 4 57 3 163 -7 894 0 923 9
197 56 333 163 410 324 62 128 59 66 61 1494 0 718 1 1313 0 1323 0 9 4 17 10
17 5 0 9 5 9 11 0 5 -4 8 -9 4 -6 -3 -8 4 -5 15 2 11 6 29 9 41 2 12 10 28 17
37 7 9 8 13 2 9 -7 -4 -9 2 -6 21 5 24 6 24 13 7 7 -18 8 -18 10 5 1 14 3 35
4 47 1 12 -1 21 -4 19 -4 -3 -6 17 -6 44 0 26 3 46 7 43 5 -2 8 0 8 5 0 6 -11
13 -25 16 -14 4 -23 11 -20 17 5 6 13 6 23 -3 12 -9 11 -6 -2 10 -20 23 -32
30 -20 10 4 -6 3 -8 -3 -5 -7 5 -11 61 -12 149 -3 381 -9 646 -15 672 -21 88
-80 197 -147 271 -50 54 -156 122 -239 153 l-75 27 -1085 2 c-914 2 -1129 4
-1277 12 -7 1 -13 6 -13 12 0 7 7 8 18 4 26 -10 56 -15 48 -8 -14 15 -106 26
-106 14 0 -6 7 -7 17 -4 11 4 14 3 9 -6 -4 -7 -13 -10 -19 -8 -7 2 -22 0 -35
-4 -17 -7 -21 -6 -16 4 6 9 4 9 -8 -1 -22 -18 -514 -18 -536 0 -9 7 -13 8 -9
2 3 -6 0 -11 -7 -11 -8 0 -12 5 -10 12 7 17 -67 67 -81 55 -13 -11 -25 -3 -25
14 0 6 5 4 10 -4 5 -8 10 -10 10 -4 0 18 -12 24 -31 13 -14 -7 -17 -6 -13 5 7
18 -12 30 -22 15 -5 -8 -3 -9 6 -4 9 5 11 4 6 -4 -6 -9 -11 -9 -22 0 -17 14
-19 23 -2 13 7 -4 8 -3 4 4 -4 7 -14 12 -22 12 -9 0 -12 -5 -8 -11 4 -7 -3 -6
-17 2 -13 7 -25 11 -27 10 -2 -2 -6 0 -9 3 -3 3 4 4 16 1 11 -2 21 0 21 6 0
10 -28 7 -49 -5 -10 -7 -13 -5 -9 5 4 11 -4 14 -34 14 -30 0 -45 -6 -69 -31z
m55 14 c-3 -5 -10 -6 -15 -3 -5 4 -12 0 -15 -9 -3 -8 -13 -17 -22 -21 -12 -4
-10 1 6 18 21 22 58 34 46 15z m276 -93 c19 -14 29 -25 23 -25 -6 0 -16 7 -23
15 -7 8 -19 15 -26 15 -8 0 -14 5 -14 10 0 14 2 13 40 -15z m3590 -1484 c0 -6
-4 -12 -8 -15 -5 -3 -9 1 -9 9 0 8 4 15 9 15 4 0 8 -4 8 -9z m-2254 -3383 c0
-9 -7 -16 -16 -17 -8 0 -24 -1 -34 -3 -13 -2 -19 3 -21 17 -1 17 5 20 35 20
27 0 36 -4 36 -17z m-871 2 c3 -5 1 -10 -4 -10 -6 0 -11 5 -11 10 0 6 2 10 4
10 3 0 8 -4 11 -10z m157 -12 c-15 -15 -16 -32 -2 -23 6 3 10 1 10 -4 0 -19
-19 -12 -31 10 -7 13 -7 19 -1 15 6 -3 13 -2 17 4 3 5 9 10 13 10 3 0 1 -5 -6
-12z m-291 -23 c-12 -6 -18 -14 -15 -18 4 -4 2 -7 -4 -7 -15 0 -15 5 0 29 6
11 18 17 26 13 11 -4 9 -8 -7 -17z m94 -14 c5 -1 4 -6 -2 -12 -6 -6 -9 -19 -5
-27 4 -12 -3 -10 -26 7 -35 24 -34 43 1 37 12 -3 26 -5 32 -5z m670 -19 c-19
-16 -31 -20 -38 -13 -15 15 7 37 39 37 l26 0 -27 -24z m-350 8 c3 -5 1 -10 -4
-10 -6 0 -11 5 -11 10 0 6 2 10 4 10 3 0 8 -4 11 -10z m274 -26 c-10 -12 -10
-14 1 -12 7 2 15 -3 17 -10 4 -11 -2 -10 -25 2 -19 10 -33 12 -37 6 -10 -16
-25 -12 -25 7 0 9 3 13 7 10 3 -4 12 -2 20 4 10 9 13 8 13 -2 1 -9 4 -8 11 4
6 9 15 15 20 11 6 -4 5 -11 -2 -20z m-104 -4 c4 -6 12 -7 18 -4 8 5 8 2 -1 -7
-10 -11 -15 -10 -29 4 -10 10 -12 17 -6 17 7 0 15 -5 18 -10z m-140 -10 c3 -5
1 -10 -4 -10 -6 0 -11 5 -11 10 0 6 2 10 4 10 3 0 8 -4 11 -10z"/>
<path d="M2710 136 c7 -7 13 -7 20 0 6 6 3 10 -10 10 -13 0 -16 -4 -10 -10z"/>
<path d="M1815 80 c-3 -5 -1 -10 4 -10 6 0 11 5 11 10 0 6 -2 10 -4 10 -3 0
-8 -4 -11 -10z"/>
<path d="M2496 78 c3 -5 10 -6 15 -3 13 9 11 12 -6 12 -8 0 -12 -4 -9 -9z"/>
<path d="M5014 3600 c0 -13 4 -16 10 -10 7 7 7 13 0 20 -6 6 -10 3 -10 -10z"/>
<path d="M4985 3410 c-3 -5 -1 -10 4 -10 6 0 11 5 11 10 0 6 -2 10 -4 10 -3 0
-8 -4 -11 -10z"/>
<path d="M4979 3373 c-13 -16 -12 -17 4 -4 9 7 17 15 17 17 0 8 -8 3 -21 -13z"/>
<path d="M1500 146 c0 -2 7 -7 16 -10 8 -3 12 -2 9 4 -6 10 -25 14 -25 6z"/>
<path d="M2895 140 c-3 -6 1 -7 10 -4 11 5 14 2 9 -12 -5 -15 -4 -16 4 -4 11
15 7 30 -8 30 -5 0 -12 -4 -15 -10z"/>
<path d="M1581 117 c-10 -17 -10 -19 -1 -10 11 10 16 9 27 -5 12 -15 13 -14 2
8 -6 14 -12 26 -13 27 -1 1 -8 -8 -15 -20z"/>
<path d="M2850 126 c0 -8 4 -17 9 -20 5 -4 7 3 4 14 -6 23 -13 26 -13 6z"/>
<path d="M1826 118 c3 -4 9 -8 15 -8 5 0 9 4 9 8 0 5 -7 9 -15 9 -8 0 -12 -4
-9 -9z"/>
<path d="M2274 119 c-10 -3 -22 -5 -26 -2 -4 2 -5 -3 -2 -11 5 -12 9 -13 25
-3 15 9 21 8 32 -7 8 -11 16 -15 19 -10 9 16 -27 41 -48 33z"/>
<path d="M2372 108 c2 -28 23 -32 39 -7 13 21 11 29 -6 23 -8 -4 -12 -11 -9
-18 3 -6 -2 -2 -10 8 -16 19 -16 19 -14 -6z"/>
<path d="M2475 120 c-3 -5 -1 -10 4 -10 6 0 11 5 11 10 0 6 -2 10 -4 10 -3 0
-8 -4 -11 -10z"/>
<path d="M2575 120 c-3 -5 -1 -10 4 -10 6 0 11 5 11 10 0 6 -2 10 -4 10 -3 0
-8 -4 -11 -10z"/>
<path d="M2071 86 c-23 -25 -68 -30 -63 -6 3 11 0 11 -12 0 -13 -10 -16 -10
-16 1 -1 9 -4 8 -11 -4 -6 -9 -14 -15 -20 -12 -5 4 -9 2 -9 -3 0 -6 -7 -9 -16
-8 -9 0 -19 -5 -21 -11 -3 -7 0 -13 7 -13 6 0 8 4 5 10 -3 6 -1 10 4 10 6 0
11 -4 11 -10 0 -5 10 -14 21 -21 15 -8 19 -8 15 0 -4 6 -2 11 4 11 7 0 9 8 4
22 -6 19 -5 21 8 11 8 -7 18 -10 21 -6 4 3 7 -1 7 -11 0 -11 -4 -15 -12 -10
-8 5 -8 1 2 -12 8 -10 16 -21 18 -24 2 -3 3 2 2 10 -4 26 0 41 8 36 5 -3 19 4
31 15 12 11 25 17 30 14 13 -8 21 8 12 23 -5 9 -14 6 -30 -12z m-106 -46 c-3
-5 -10 -10 -16 -10 -5 0 -9 5 -9 10 0 6 7 10 16 10 8 0 12 -4 9 -10z"/>
<path d="M2776 102 c-2 -4 0 -14 6 -22 8 -12 9 -12 4 2 -3 10 1 18 12 21 16 4
16 5 0 6 -9 0 -19 -3 -22 -7z"/>
<path d="M2970 99 c0 -5 5 -7 10 -4 6 3 10 8 10 11 0 2 -4 4 -10 4 -5 0 -10
-5 -10 -11z"/>
<path d="M1634 80 c0 -13 4 -16 10 -10 7 7 7 13 0 20 -6 6 -10 3 -10 -10z"/>
<path d="M1925 90 c-3 -6 -12 -7 -18 -4 -7 4 -8 3 -4 -1 12 -14 37 -15 37 -2
0 7 5 6 11 -3 9 -12 10 -12 7 -1 -5 19 -24 25 -33 11z"/>
<path d="M2213 87 c0 -7 9 -14 19 -14 22 -2 24 13 2 21 -21 8 -21 8 -21 -7z"/>
<path d="M2265 90 c-3 -5 -1 -18 4 -27 11 -19 11 -19 15 15 3 23 -8 30 -19 12z"/>
<path d="M1470 86 c0 -2 7 -7 16 -10 8 -3 12 -2 9 4 -6 10 -25 14 -25 6z"/>
<path d="M1754 41 c2 -42 11 -46 12 -5 0 19 -2 34 -6 34 -4 0 -7 -13 -6 -29z"/>
<path d="M2540 60 c0 -5 5 -10 11 -10 5 0 7 5 4 10 -3 6 -8 10 -11 10 -2 0 -4
-4 -4 -10z"/>
<path d="M2672 62 c-9 -6 -6 -11 11 -19 18 -9 24 -8 24 2 0 8 -7 11 -15 7 -10
-3 -13 -1 -8 6 8 14 6 15 -12 4z"/>
<path d="M2043 35 c-16 -18 -17 -33 -1 -17 19 19 32 14 17 -5 -13 -16 -12 -17
3 -5 9 8 14 20 11 28 -6 17 -14 17 -30 -1z"/>
<path d="M2510 40 c-12 -7 -10 -9 7 -7 12 0 19 5 17 9 -6 10 -6 10 -24 -2z"/>
<path d="M2766 38 c3 -5 10 -6 15 -3 13 9 11 12 -6 12 -8 0 -12 -4 -9 -9z"/>
<path d="M2550 36 c0 -2 9 -6 20 -9 11 -3 18 -1 14 4 -5 9 -34 13 -34 5z"/>
<path d="M2629 23 c-13 -16 -12 -17 4 -4 16 13 21 21 13 21 -2 0 -10 -8 -17
-17z"/>
<path d="M1715 20 c3 -5 8 -10 11 -10 2 0 4 5 4 10 0 6 -5 10 -11 10 -5 0 -7
-4 -4 -10z"/>
<path d="M1856 17 c3 -10 9 -15 12 -12 3 3 0 11 -7 18 -10 9 -11 8 -5 -6z"/>
<path d="M2476 13 c-6 -14 -5 -15 5 -6 7 7 10 15 7 18 -3 3 -9 -2 -12 -12z"/>
<path d="M2510 10 c-9 -6 -10 -10 -3 -10 6 0 15 5 18 10 8 12 4 12 -15 0z"/>
</g>
</svg>
